<?xml version="1.0" encoding="UTF-8"?>
<svg id="Layer_2" data-name="Layer 2" xmlns="http://www.w3.org/2000/svg" viewBox="0 0 985.64 488.88">
  <defs>
    <style>
      .cls-1 {
        fill: #eca040;
      }

      .cls-2 {
        fill: #c03430;
      }
    </style>
  </defs>
  <g id="Layer_1-2" data-name="Layer 1">
    <g>
      <path class="cls-1" d="M61.29,58.37h36.78v32.11h-36.78v54.87c0,9.92,1.55,17.37,4.67,22.33,3.11,4.96,8.17,7.44,15.18,7.44,2.72,0,6.13-.53,10.22-1.6,4.09-1.07,9.53-3.55,16.34-7.44l4.67,32.69c-6.81,4.28-13.72,7.25-20.72,8.9-7,1.65-13.82,2.48-20.43,2.48-17.51,0-30.35-4.82-38.53-14.45-8.17-9.63-12.26-23.4-12.26-41.3v-63.92H0v-32.11h20.43L32.11,7h29.19v51.37Z"/>
      <path class="cls-1" d="M139.22,22.77c0-6.22,2.23-11.57,6.71-16.05,4.47-4.47,9.82-6.71,16.05-6.71s11.57,2.24,16.05,6.71c4.47,4.48,6.71,9.83,6.71,16.05s-2.24,11.58-6.71,16.05c-4.48,4.48-9.83,6.71-16.05,6.71s-11.58-2.23-16.05-6.71c-4.48-4.47-6.71-9.82-6.71-16.05ZM141.55,58.37h40.86v145.93h-40.86V58.37Z"/>
      <path class="cls-1" d="M249.55,130.76c0,7.2,1.07,13.72,3.21,19.56,2.14,5.84,5.06,10.8,8.76,14.89,3.69,4.09,8.12,7.25,13.28,9.49,5.15,2.24,10.75,3.36,16.78,3.36,4.09,0,8.07-.53,11.97-1.61,3.89-1.07,7.39-2.63,10.51-4.67,3.11-2.04,5.59-4.62,7.44-7.74,1.85-3.11,2.87-6.71,3.06-10.8h42.61c0,8.95-1.75,16.98-5.25,24.08-3.5,7.11-8.51,13.09-15.03,17.95-6.52,4.87-14.45,8.56-23.79,11.09-9.34,2.53-19.75,3.79-31.23,3.79-12.07,0-23.2-1.66-33.42-4.96-10.22-3.31-19.02-8.27-26.41-14.89-7.4-6.61-13.13-14.88-17.22-24.81-4.09-9.92-6.13-21.5-6.13-34.73s1.99-24.42,5.98-34.15c3.98-9.73,9.58-17.85,16.78-24.37,7.2-6.52,15.76-11.43,25.68-14.74,9.92-3.31,20.82-4.96,32.69-4.96s22.33,1.41,31.96,4.23c9.63,2.82,17.85,6.96,24.66,12.4,6.81,5.45,12.01,12.11,15.62,19.99,3.6,7.88,5.4,16.78,5.4,26.71h-42.61c-.2-5.64-1.22-10.41-3.06-14.3-1.85-3.89-4.33-7.1-7.44-9.63-3.11-2.53-6.67-4.38-10.65-5.55-3.99-1.17-8.22-1.75-12.7-1.75-12.46,0-22.47,4.19-30.06,12.55-7.59,8.37-11.38,19.56-11.38,33.56Z"/>
      <path class="cls-1" d="M394.02,0h40.86v112.37l67.42-54h51.95l-64.5,53.7,64.21,92.23h-49.91l-45.82-65.96-23.35,19.56v46.41h-40.86V0Z"/>
      <path class="cls-1" d="M715.66,153.23c0,8.95-1.85,16.98-5.54,24.08-3.7,7.11-8.95,13.09-15.76,17.95-6.81,4.87-14.94,8.56-24.37,11.09-9.44,2.53-19.8,3.79-31.08,3.79-26.27,0-46.46-6.71-60.56-20.14-14.11-13.43-21.16-32.88-21.16-58.37s6.96-44.8,20.87-58.52c13.91-13.72,34-20.58,60.27-20.58,13.81,0,25.88,1.95,36.19,5.84,10.31,3.89,18.78,9.54,25.39,16.93,6.61,7.4,11.28,16.3,14.01,26.71,2.72,10.41,3.4,22.23,2.04,35.46h-117.92c.58,5.45,1.94,10.65,4.09,15.61,2.14,4.96,4.96,9.29,8.46,12.99,3.5,3.7,7.73,6.62,12.7,8.76,4.96,2.14,10.46,3.21,16.49,3.21,4.09,0,8.12-.53,12.11-1.61,3.98-1.07,7.49-2.63,10.51-4.67,3.01-2.04,5.5-4.62,7.44-7.74,1.94-3.11,3.01-6.71,3.21-10.8h42.61ZM672.47,111.2c-1.75-8.36-5.5-14.89-11.24-19.56-5.74-4.67-12.99-7.01-21.74-7.01s-16.98,2.44-23.5,7.3c-6.52,4.87-11.43,11.29-14.74,19.26h71.22Z"/>
      <path class="cls-1" d="M789.8,58.37h36.78v32.11h-36.78v54.87c0,9.92,1.55,17.37,4.67,22.33,3.11,4.96,8.17,7.44,15.18,7.44,2.72,0,6.13-.53,10.22-1.6,4.09-1.07,9.53-3.55,16.34-7.44l4.67,32.69c-6.81,4.28-13.72,7.25-20.72,8.9-7,1.65-13.82,2.48-20.43,2.48-17.51,0-30.35-4.82-38.53-14.45-8.17-9.63-12.26-23.4-12.26-41.3v-63.92h-20.43v-32.11h20.43l11.67-51.37h29.19v51.37Z"/>
      <path class="cls-2" d="M162.87,371.84c0,8.95-1.85,16.98-5.54,24.08-3.7,7.11-8.95,13.09-15.76,17.95-6.81,4.87-14.94,8.56-24.37,11.09-9.44,2.53-19.8,3.79-31.08,3.79-26.27,0-46.46-6.71-60.56-20.14-14.11-13.43-21.16-32.88-21.16-58.37s6.96-44.8,20.87-58.52c13.91-13.72,34-20.58,60.27-20.58,13.81,0,25.88,1.95,36.19,5.84,10.31,3.89,18.78,9.54,25.39,16.93,6.61,7.4,11.28,16.3,14.01,26.71,2.72,10.41,3.4,22.23,2.04,35.46H45.24c.58,5.45,1.94,10.65,4.09,15.61,2.14,4.96,4.96,9.29,8.46,12.99,3.5,3.7,7.73,6.62,12.7,8.76,4.96,2.14,10.46,3.21,16.49,3.21,4.09,0,8.12-.53,12.11-1.61,3.98-1.07,7.49-2.63,10.51-4.67,3.01-2.04,5.5-4.62,7.44-7.74,1.94-3.11,3.01-6.71,3.21-10.8h42.61ZM119.67,329.81c-1.75-8.36-5.5-14.88-11.24-19.56-5.74-4.67-12.99-7-21.74-7s-16.98,2.43-23.5,7.3c-6.52,4.87-11.43,11.29-14.74,19.26h71.22Z"/>
      <path class="cls-2" d="M252.47,373.89l-32.69,49.03h-52.83l59.25-72.97-59.25-72.97h52.83l32.69,49.03,32.69-49.03h52.83l-58.96,72.97,58.96,72.97h-52.83l-32.69-49.03Z"/>
      <path class="cls-2" d="M402.2,276.98v34.44c0-2.72,1.07-6.37,3.21-10.95,2.14-4.57,5.5-9.05,10.07-13.43,4.57-4.38,10.31-8.12,17.22-11.24,6.9-3.11,15.13-4.67,24.66-4.67s18.92,1.85,27.58,5.55c8.66,3.7,16.2,8.95,22.62,15.76,6.42,6.81,11.53,15.08,15.32,24.81,3.79,9.73,5.69,20.63,5.69,32.69s-1.9,22.96-5.69,32.69c-3.79,9.73-8.95,18-15.47,24.81-6.52,6.81-14.21,12.07-23.06,15.76-8.86,3.69-18.34,5.54-28.46,5.54-9.34,0-17.37-1.36-24.08-4.09-6.71-2.72-12.26-5.93-16.64-9.63-4.38-3.69-7.64-7.39-9.78-11.09-2.14-3.69-3.21-6.52-3.21-8.46v93.4h-40.86v-211.9h40.86ZM446.56,395.19c12.26,0,22.18-4.04,29.77-12.11,7.59-8.07,11.38-19.12,11.38-33.13s-3.7-25.05-11.09-33.13c-7.4-8.07-16.83-12.11-28.31-12.11-4.48,0-9.39.73-14.74,2.19-5.35,1.46-10.36,3.94-15.03,7.44-4.67,3.5-8.56,8.17-11.67,14.01-3.11,5.84-4.67,13.04-4.67,21.6s1.36,15.13,4.09,20.87c2.72,5.74,6.17,10.41,10.36,14.01,4.18,3.6,8.9,6.23,14.16,7.88,5.25,1.66,10.51,2.48,15.76,2.48Z"/>
      <path class="cls-2" d="M710.41,371.84c0,8.95-1.85,16.98-5.54,24.08-3.7,7.11-8.95,13.09-15.76,17.95-6.81,4.87-14.94,8.56-24.37,11.09-9.44,2.53-19.8,3.79-31.08,3.79-26.27,0-46.46-6.71-60.56-20.14-14.11-13.43-21.16-32.88-21.16-58.37s6.96-44.8,20.87-58.52c13.91-13.72,34-20.58,60.27-20.58,13.81,0,25.88,1.95,36.19,5.84,10.31,3.89,18.78,9.54,25.39,16.93,6.61,7.4,11.28,16.3,14.01,26.71,2.72,10.41,3.4,22.23,2.04,35.46h-117.92c.58,5.45,1.94,10.65,4.09,15.61,2.14,4.96,4.96,9.29,8.46,12.99,3.5,3.7,7.73,6.62,12.7,8.76,4.96,2.14,10.46,3.21,16.49,3.21,4.09,0,8.12-.53,12.11-1.61,3.98-1.07,7.49-2.63,10.51-4.67,3.01-2.04,5.5-4.62,7.44-7.74,1.94-3.11,3.01-6.71,3.21-10.8h42.61ZM667.22,329.81c-1.75-8.36-5.5-14.88-11.24-19.56-5.74-4.67-12.99-7-21.74-7s-16.98,2.43-23.5,7.3c-6.52,4.87-11.43,11.29-14.74,19.26h71.22Z"/>
      <path class="cls-2" d="M847.59,315.8c-4.28-3.89-11-5.84-20.14-5.84-6.42,0-12.4.78-17.95,2.33-5.54,1.56-10.36,4.19-14.45,7.88-4.09,3.7-7.35,8.56-9.78,14.59-2.44,6.03-3.65,13.62-3.65,22.77v65.38h-40.86v-145.94h40.86v37.07c0-3.89,1.56-8.32,4.67-13.28,3.11-4.96,7.73-9.58,13.86-13.86,6.13-4.28,13.86-7.74,23.2-10.36,9.34-2.63,20.14-3.45,32.4-2.48l-8.17,41.74Z"/>
      <path class="cls-2" d="M934.57,276.98h36.78v32.11h-36.78v54.87c0,9.92,1.55,17.37,4.67,22.33,3.11,4.96,8.17,7.44,15.18,7.44,2.72,0,6.13-.53,10.22-1.6,4.09-1.07,9.53-3.55,16.34-7.44l4.67,32.69c-6.81,4.28-13.72,7.25-20.72,8.9-7,1.65-13.82,2.48-20.43,2.48-17.51,0-30.35-4.82-38.53-14.45-8.17-9.63-12.26-23.4-12.26-41.3v-63.92h-20.43v-32.11h20.43l11.67-51.37h29.19v51.37Z"/>
    </g>
  </g>
</svg>