<?xml version="1.0" encoding="UTF-8"?>
<svg id="Layer_2" data-name="Layer 2" xmlns="http://www.w3.org/2000/svg" xmlns:xlink="http://www.w3.org/1999/xlink" viewBox="0 0 823.41 381.66">
  <defs>
    <style>
      .cls-1 {
        fill: url(#linear-gradient-2);
      }

      .cls-2 {
        fill: url(#linear-gradient);
      }
    </style>
    <linearGradient id="linear-gradient" x1="261.16" y1="-763.94" x2="32.87" y2="-368.52" gradientTransform="translate(0 -375.4) scale(1 -1)" gradientUnits="userSpaceOnUse">
      <stop offset="0" stop-color="#fff" stop-opacity="0"/>
      <stop offset="0" stop-color="#fefefd" stop-opacity="0"/>
      <stop offset=".12" stop-color="#fae8d1" stop-opacity=".24"/>
      <stop offset=".23" stop-color="#f6d5ab" stop-opacity=".44"/>
      <stop offset=".35" stop-color="#f3c48a" stop-opacity=".61"/>
      <stop offset=".47" stop-color="#f0b76f" stop-opacity=".75"/>
      <stop offset=".59" stop-color="#eead5a" stop-opacity=".86"/>
      <stop offset=".72" stop-color="#eda54b" stop-opacity=".94"/>
      <stop offset=".85" stop-color="#eca142" stop-opacity=".98"/>
      <stop offset="1" stop-color="#eca040"/>
    </linearGradient>
    <linearGradient id="linear-gradient-2" x1="705.51" y1="-319.43" x2="420.54" y2="-813.03" gradientTransform="translate(0 -375.4) scale(1 -1)" gradientUnits="userSpaceOnUse">
      <stop offset="0" stop-color="#fff" stop-opacity="0"/>
      <stop offset=".03" stop-color="#faf1f1" stop-opacity=".07"/>
      <stop offset=".16" stop-color="#ebbfbe" stop-opacity=".31"/>
      <stop offset=".29" stop-color="#de9492" stop-opacity=".52"/>
      <stop offset=".42" stop-color="#d3716e" stop-opacity=".7"/>
      <stop offset=".55" stop-color="#ca5653" stop-opacity=".83"/>
      <stop offset=".69" stop-color="#c4433f" stop-opacity=".92"/>
      <stop offset=".84" stop-color="#c13733" stop-opacity=".98"/>
      <stop offset="1" stop-color="#c03430"/>
    </linearGradient>
  </defs>
  <g id="Layer_2-2" data-name="Layer 2">
    <g>
      <path class="cls-2" d="M294.03,28.64v324.38c0,15.82-12.82,28.64-28.64,28.64H28.63c-15.81,0-28.63-12.82-28.63-28.64v-104.1c31.76,0,57.51-25.75,57.51-57.52S31.76,133.89,0,133.89V28.64C0,12.82,12.82,0,28.63,0h236.76c15.82,0,28.64,12.82,28.64,28.64h0Z"/>
      <path class="cls-1" d="M765.9,191.4c0,31.77,25.75,57.52,57.51,57.52v104.1c0,15.82-12.82,28.64-28.64,28.64h-463.49c-15.82,0-28.64-12.82-28.64-28.64V28.64c0-15.82,12.82-28.64,28.64-28.64h463.49c15.82,0,28.64,12.82,28.64,28.64v105.25c-31.76,0-57.51,25.75-57.51,57.51Z"/>
    </g>
  </g>
</svg>